<svg xmlns="http://www.w3.org/2000/svg" xmlns:xlink="http://www.w3.org/1999/xlink"><symbol viewBox="0 0 320.8 87.5" id="LuzernerRollenspieltag" xmlns="http://www.w3.org/2000/svg"><style>.aast0{fill:#3d1c00}.aast1,.aast2,.aast3{fill:none;stroke:#f80808;stroke-width:.873;stroke-linecap:round;stroke-linejoin:round;stroke-miterlimit:10}.aast2,.aast3{stroke:#8a685f;stroke-width:1.0572}.aast3{stroke:#918579}.aast4{fill:#f80808}</style><path class="aast0" d="M1.6 31.9v-1.3l2.4-.2V12.3l-2.4-.2v-1.3H8v1.3l-2.4.2v18.1h8.8l.1-3H16v4.4H1.6zM29.7 29.4c-.5.9-1.2 1.6-2 2.1-.9.5-1.9.8-3 .8-1.6 0-2.9-.6-3.9-1.7-.9-1.1-1.4-2.9-1.4-5.2v-7.6l-1.9-.2v-1.3H21.1v9.1c0 1.9.3 3.3 1 4.1.7.8 1.6 1.2 2.8 1.2 1.3 0 2.4-.3 3.1-.9.8-.6 1.3-1.4 1.6-2.4v-9.7l-2.2-.2v-1.3H31.3v14.2l2.1.2v1.3h-3.6l-.1-2.5zM38.2 30.5h8.5l.1-3h1.5v4.4H36.1v-1.3l9.4-12.9h-7.7l-.1 3h-1.5v-4.4h11.6v1.3l-9.6 12.9zM57.9 32.2c-2 0-3.6-.7-4.9-2.2-1.3-1.4-1.9-3.3-1.9-5.5v-.8c0-2.2.6-4.1 1.9-5.6 1.3-1.5 2.8-2.2 4.7-2.2 1.9 0 3.4.6 4.5 1.8 1.1 1.2 1.7 2.8 1.7 4.9v1.5H52.7v.4c0 1.8.5 3.2 1.4 4.4.9 1.2 2.2 1.8 3.7 1.8 1.1 0 2-.1 2.8-.4.8-.3 1.4-.7 2-1.3l.7 1.2c-.6.6-1.3 1.1-2.2 1.5s-2 .5-3.2.5zm-.3-14.7c-1.3 0-2.3.5-3.2 1.5-.9 1-1.4 2.2-1.5 3.7v.1h9.2v-.4c0-1.4-.4-2.5-1.2-3.4-.8-1.1-1.9-1.5-3.3-1.5zM70.1 16.3l.2 2.6v.2c.4-1 1-1.7 1.8-2.3.8-.5 1.7-.8 2.7-.8.2 0 .4 0 .6.1.2 0 .4.1.5.1l-.2 1.6-1.3-.1c-1.1 0-2 .3-2.7.9-.7.6-1.2 1.5-1.5 2.5v9.4l2.4.2V32h-6.4v-1.3l2.4-.2V17.7l-2.4-.2v-1.3h3.9zM78.3 30.7l2.4-.2V17.7l-2.4-.2v-1.3h3.9l.2 2.7c.5-1 1.2-1.7 2-2.2.9-.5 1.9-.8 3-.8 1.7 0 3 .5 3.9 1.6.9 1 1.3 2.7 1.3 4.9v8.1l2.4.2V32h-6.5v-1.3l2.4-.2v-8.1c0-1.8-.3-3.1-1-3.8s-1.6-1.1-2.9-1.1c-1.2 0-2.2.3-3 1-.8.6-1.3 1.5-1.7 2.6v9.5l2.4.2v1.3h-6.5v-1.4zM103.4 32.2c-2 0-3.6-.7-4.9-2.2-1.3-1.4-1.9-3.3-1.9-5.5v-.8c0-2.2.6-4.1 1.9-5.6 1.3-1.5 2.8-2.2 4.7-2.2 1.9 0 3.4.6 4.5 1.8 1.1 1.2 1.7 2.8 1.7 4.9v1.5H98.3v.4c0 1.8.5 3.2 1.4 4.4.9 1.2 2.2 1.8 3.7 1.8 1.1 0 2-.1 2.8-.4.8-.3 1.4-.7 2-1.3l.7 1.2c-.6.6-1.3 1.1-2.2 1.5s-2 .5-3.3.5zm-.2-14.7c-1.3 0-2.3.5-3.2 1.5-.9 1-1.4 2.2-1.5 3.7v.1h9.2v-.4c0-1.4-.4-2.5-1.2-3.4-.9-1.1-1.9-1.5-3.3-1.5zM115.7 16.3l.2 2.6v.2c.4-1 1-1.7 1.8-2.3.8-.5 1.7-.8 2.7-.8.2 0 .4 0 .6.1.2 0 .4.1.5.1l-.2 1.6-1.3-.1c-1.1 0-2 .3-2.7.9-.7.6-1.2 1.5-1.5 2.5v9.4l2.4.2V32h-6.4v-1.3l2.4-.2V17.7l-2.4-.2v-1.3h3.9zM139.1 24.5h-2.8V32h-5.1V10.9h8.3c2.5 0 4.5.6 5.9 1.7 1.4 1.1 2.1 2.7 2.1 4.7 0 1.5-.3 2.7-.9 3.6-.6 1-1.5 1.7-2.8 2.3l4.4 8.5v.2h-5.4l-3.7-7.4zm-2.8-3.9h3.2c1 0 1.7-.3 2.2-.8.5-.5.7-1.2.7-2.1s-.2-1.6-.7-2.1c-.5-.5-1.2-.8-2.2-.8h-3.2v5.8zM149.2 24c0-1.6.3-3 .9-4.2.6-1.2 1.5-2.2 2.6-2.8s2.5-1 4-1c2.3 0 4.2.7 5.5 2.2 1.4 1.5 2 3.4 2 5.9v.2c0 2.4-.7 4.4-2 5.8-1.4 1.4-3.2 2.1-5.5 2.1-2.2 0-4-.7-5.4-2-1.4-1.3-2.1-3.1-2.2-5.4l.1-.8zm4.9.3c0 1.4.2 2.5.7 3.2.5.7 1.1 1 2 1 1.7 0 2.6-1.3 2.7-4V24c0-2.8-.9-4.2-2.7-4.2-1.6 0-2.5 1.2-2.6 3.6l-.1.9zM171.4 31.9h-4.9V9.7h4.9v22.2zM179.2 31.9h-4.9V9.7h4.9v22.2zM189.6 32.2c-2.4 0-4.3-.7-5.8-2.1-1.5-1.4-2.2-3.3-2.2-5.6v-.4c0-1.6.3-3 .9-4.2.6-1.2 1.5-2.2 2.6-2.8 1.1-.7 2.5-1 4.1-1 2.2 0 3.9.7 5.2 2 1.3 1.4 1.9 3.3 1.9 5.7v1.9h-9.7c.2.9.6 1.6 1.1 2.1s1.4.8 2.3.8c1.5 0 2.8-.5 3.6-1.6l2.2 2.6c-.6.8-1.5 1.5-2.6 2-1.2.4-2.4.6-3.6.6zm-.6-12.5c-1.4 0-2.3.9-2.5 2.8h4.9v-.4c0-.8-.2-1.4-.6-1.8-.4-.3-1-.6-1.8-.6zM202.7 16.3l.2 1.8c1.1-1.4 2.6-2.1 4.5-2.1 1.6 0 2.8.5 3.7 1.5.8 1 1.2 2.4 1.3 4.4V32h-4.9V22c0-.8-.2-1.4-.5-1.7-.3-.4-.9-.6-1.7-.6-1 0-1.7.4-2.1 1.1v11.1h-4.9V16.3h4.4zM223 27.5c0-.4-.2-.7-.7-1-.4-.3-1.3-.5-2.5-.8s-2.2-.6-3-1.1-1.4-1-1.8-1.6c-.4-.6-.6-1.3-.6-2.2 0-1.4.6-2.6 1.8-3.6 1.2-.9 2.7-1.4 4.7-1.4 2.1 0 3.7.5 5 1.4 1.3.9 1.9 2.2 1.9 3.7h-4.9c0-1.3-.7-1.9-2-1.9-.5 0-.9.1-1.3.4-.3.3-.5.6-.5 1.1 0 .4.2.8.6 1.1.4.3 1.1.5 2 .7.9.2 1.7.4 2.5.6 2.4.8 3.5 2.3 3.5 4.4 0 1.4-.6 2.6-1.9 3.5-1.3.9-2.9 1.3-4.9 1.3-1.3 0-2.5-.2-3.6-.7s-1.9-1.1-2.5-2-.9-1.7-.9-2.6h4.6c0 .7.3 1.3.7 1.6.5.3 1.1.5 1.8.5s1.2-.1 1.5-.4c.3-.2.5-.5.5-1zM244.4 24.2c0 2.4-.5 4.4-1.6 5.8-1.1 1.5-2.6 2.2-4.4 2.2-1.4 0-2.6-.5-3.5-1.6V38H230V16.3h4.6l.1 1.4c.9-1.2 2.2-1.7 3.7-1.7 1.9 0 3.4.7 4.5 2.1 1.1 1.4 1.6 3.4 1.6 5.9v.2zm-4.8-.3c0-2.8-.8-4.2-2.4-4.2-1.2 0-1.9.4-2.3 1.2v6.2c.4.9 1.2 1.3 2.3 1.3 1.6 0 2.4-1.3 2.4-4v-.5zM246.3 12.2c0-.7.3-1.3.8-1.7.5-.4 1.2-.7 2-.7s1.5.2 2 .7c.5.4.8 1 .8 1.7s-.3 1.3-.8 1.7c-.5.4-1.2.7-2 .7s-1.5-.2-2-.7c-.5-.4-.8-1-.8-1.7zm5.2 19.7h-4.9V16.3h4.9v15.6zM261.8 32.2c-2.4 0-4.3-.7-5.8-2.1-1.5-1.4-2.2-3.3-2.2-5.6v-.4c0-1.6.3-3 .9-4.2.6-1.2 1.5-2.2 2.6-2.8 1.1-.7 2.5-1 4.1-1 2.2 0 3.9.7 5.2 2 1.3 1.4 1.9 3.3 1.9 5.7v1.9h-9.7c.2.9.6 1.6 1.1 2.1s1.4.8 2.3.8c1.5 0 2.8-.5 3.6-1.6l2.2 2.6c-.6.8-1.5 1.5-2.6 2-1.2.4-2.4.6-3.6.6zm-.6-12.5c-1.4 0-2.3.9-2.5 2.8h4.9v-.4c0-.8-.2-1.4-.6-1.8-.4-.3-1-.6-1.8-.6zM275.4 31.9h-4.9V9.7h4.9v22.2zM283.9 12.4v3.9h2.6v3.4h-2.6v7.2c0 .6.1 1 .3 1.2.2.2.6.3 1.3.3.5 0 .9 0 1.2-.1v3.5c-.9.3-1.8.4-2.8.4-1.7 0-2.9-.4-3.7-1.2-.8-.8-1.2-2-1.2-3.6v-7.8h-2v-3.4h2v-3.9h4.9zM297.4 31.9c-.2-.3-.3-.8-.5-1.4-.9 1.1-2.2 1.7-3.8 1.7-1.5 0-2.7-.4-3.8-1.3s-1.5-2-1.5-3.4c0-1.7.6-3 1.9-3.9 1.3-.9 3.1-1.3 5.5-1.3h1.5v-.8c0-1.4-.6-2.2-1.9-2.2-1.2 0-1.7.6-1.7 1.7h-4.9c0-1.5.6-2.7 1.9-3.7 1.3-.9 2.9-1.4 4.9-1.4 2 0 3.6.5 4.7 1.5 1.2 1 1.8 2.3 1.8 4v6.9c0 1.4.2 2.5.7 3.3v.2h-4.8zm-3.1-3.2c.6 0 1.1-.1 1.5-.4.4-.3.7-.6.9-.9V25h-1.4c-1.7 0-2.5.8-2.5 2.3 0 .4.1.8.4 1.1.3.2.6.3 1.1.3zM303.5 24c0-1.6.3-3 .8-4.2.5-1.2 1.3-2.2 2.2-2.8 1-.7 2.1-1 3.4-1 1.6 0 2.9.6 3.8 1.7l.2-1.4h4.4v15.1c0 1.4-.3 2.6-1 3.6s-1.6 1.8-2.8 2.3-2.6.8-4.2.8c-1.1 0-2.3-.2-3.3-.7-1.1-.4-1.9-1-2.5-1.7l2-2.9c.9 1.1 2.1 1.6 3.6 1.6 2.2 0 3.2-1.1 3.2-3.3v-.5c-.9 1-2.1 1.5-3.5 1.5-1.9 0-3.5-.7-4.6-2.2-1.2-1.5-1.8-3.4-1.8-5.9zm4.9.3c0 1.3.2 2.3.7 3s1.2 1.1 2 1.1c1.1 0 1.8-.4 2.3-1.1v-6.6c-.5-.7-1.2-1.1-2.3-1.1-.9 0-1.5.4-2 1.2-.4.9-.7 2-.7 3.5z"/><path class="aast1" d="M99 54.1l8.1-7.5s4.3-4.3 8.1-.5 3.8 3.2 3.8 3.2L86.1 82.7 76.9 87l3.2-8.1 30.2-30.2 2.7 2.7"/><path class="aast2" d="M51.5 60.4c-6.5.6-10.8 4.5-12.1 10.9h11.1l4.4 4.4v11.1C61.4 85.5 66 79.9 66 73.3v-1.9S84.1 63 81.5 44.7C56.7 46 51.8 67.4 51.8 67.4"/><path class="aast3" d="M7.6 75.4l-3.4 3.7s-6.1 1.5-2.7 4.9 4.9-2.7 4.9-2.7l6.1-6.1 5.3 5.3s1.1-3.4-2.3-6.1c6.1-5.3 20-17.5 20-17.5l3.6-10.6-10.2 3.4S14.1 66.8 11.1 69.8C8.4 66.6 5 67.7 5 67.7l5.3 5.3"/><g><path class="aast4" d="M307.8 10.6l1.7-.2V3.8h-1.7V2.7l3.6-.7v8.4l1.7.2v1.2h-5.3v-1.2zM320.2 4.6c0 .5-.1.9-.4 1.3-.3.4-.6.7-1.1.9.5.2.9.5 1.2.9s.5.9.5 1.4c0 .9-.3 1.6-.9 2.1-.6.5-1.4.7-2.4.7s-1.8-.2-2.4-.7-.9-1.2-.9-2.1c0-.5.1-1 .4-1.4s.7-.7 1.2-.9c-.5-.2-.8-.5-1.1-.9-.3-.4-.4-.8-.4-1.3 0-.9.3-1.5.9-2 .6-.5 1.3-.7 2.3-.7s1.7.2 2.3.7.8 1.1.8 2zM318.5 9c0-.4-.1-.8-.4-1.1-.3-.3-.6-.4-1-.4s-.7.1-1 .4c-.3.3-.4.6-.4 1.1 0 .5.1.8.4 1.1.3.3.6.4 1 .4s.7-.1 1-.4c.3-.3.4-.6.4-1.1zm-.2-4.3c0-.4-.1-.7-.3-1-.2-.2-.5-.4-.8-.4-.4 0-.6.1-.8.4s-.3.6-.3 1 .1.7.3 1c.2.2.5.4.9.4s.6-.1.8-.4c.1-.3.2-.6.2-1z"/></g></symbol><symbol viewBox="0 0 30 30" id="add_user_male" xmlns="http://www.w3.org/2000/svg"><path d="M14 23c0-3.539 2.047-6.591 5.017-8.062.409-.57.785-1.273.855-1.89.354-.027.91-.352 1.074-1.635.088-.689-.262-1.076-.474-1.198 0 0 .528-1.003.528-2.214 0-2.428-.953-4.5-3-4.5 0 0-.711-1.5-3-1.5-4.242 0-6 2.721-6 6 0 1.104.528 2.214.528 2.214-.212.122-.562.51-.474 1.198.164 1.283.72 1.608 1.074 1.635C10.263 14.245 11.55 15.777 12 16v2c-1 3-9 1-9 8h11.523A8.956 8.956 0 0 1 14 23z"/><path d="M23 16a7 7 0 1 0 0 14 7 7 0 0 0 0-14zm3 8h-2v2a1 1 0 1 1-2 0v-2h-2a1 1 0 1 1 0-2h2v-2a1 1 0 1 1 2 0v2h2a1 1 0 1 1 0 2z"/></symbol><symbol viewBox="0 0 24 24" id="arrow-left" xmlns="http://www.w3.org/2000/svg"><path d="M15.9 22.9L5 11.9 15.9 1l.7.7L6.4 11.9l10.2 10.3z"/></symbol><symbol viewBox="0 0 24 24" id="arrow-right" xmlns="http://www.w3.org/2000/svg"><path d="M8.1 22.9l-.7-.7 10.2-10.3L7.4 1.7l.7-.7L19 11.9z"/></symbol><symbol viewBox="0 0 24 24" id="basket" xmlns="http://www.w3.org/2000/svg"><path d="M20.5 8.5h-1.9c-.1-2.9-1.5-5-1.6-5.1s-.2-.2-.3-.2c-3.6-.9-6.7-.9-10.2 0-.7.3-1.8 2.8-2 5.3H2.7c-.3 0-.5.2-.5.5v.3l2.2 8.2c.4 1.2 1.4 2 2.8 2H16c1.3 0 2.4-.8 2.8-2L21 9.3V9c0-.3-.2-.5-.5-.5zM6.9 4.1c3.3-.8 6.1-.8 9.4 0 .3.5 1.2 2.2 1.3 4.4H5.5c.2-2.2 1.1-3.9 1.4-4.4zm7.6 7.4h-6v-2h6v2zm0 1v3h-6v-3h6zm-11-3h4v2H3.8l-.5-2h.2zm.6 3h3.4v3H4.9l-.8-3zm3.1 6c-.9 0-1.6-.5-1.8-1.2l-.2-.8h2.3v2h-.3zm4.3 0h-3v-2h6v2h-3zm4.5 0h-.5v-2H18l-.2.8c-.2.7-.9 1.2-1.8 1.2zm2.3-3h-2.8v-3h3.6l-.8 3zm1.1-4h-3.9v-2h4.4l-.5 2z"/></symbol><symbol viewBox="0 0 24 24" id="basket-add" xmlns="http://www.w3.org/2000/svg"><path d="M8.5 12.5h2v-1h-2v-2h11.4l-.3.9h1l.4-1.1V9c0-.1 0-.3-.1-.4-.1-.1-.2-.2-.4-.2h-1.9c-.2-2.8-1.5-4.9-1.5-5l-.1-.2h-.2c-3.6-.9-6.7-.9-10.2 0-.7.3-1.8 2.8-2 5.3H2.7c-.3 0-.5.2-.5.5v.3l2.2 8.2c.4 1.2 1.4 2 2.8 2h2.3v-1h-1v-2h1v-1h-1v-3zm-1 6h-.3c-.9 0-1.6-.5-1.8-1.2l-.2-.8h2.3v2zm0-3H4.9l-.8-3h3.4v3zm0-4H3.8l-.5-2h4.2v2zm0-3h-2c.1-2.2 1.1-3.9 1.3-4.4 3.3-.8 6.1-.8 9.4 0 .3.5 1.2 2.2 1.3 4.4h-10zm9 5h-1v2h-2v1h2v2.1h1v-2.1h2v-1h-2zm-.5-3c-3 0-5.5 2.5-5.5 5.5s2.5 5.5 5.5 5.5 5.5-2.5 5.5-5.5-2.5-5.5-5.5-5.5zm0 10c-2.5 0-4.5-2-4.5-4.5s2-4.5 4.5-4.5 4.5 2 4.5 4.5-2 4.5-4.5 4.5z"/></symbol><symbol viewBox="0 0 24 24" id="basket-checkmark" xmlns="http://www.w3.org/2000/svg"><path d="M8.5 12.5h2v-1h-2v-2h11.4l-.3.9h1l.4-1.1V9c0-.1 0-.3-.1-.4-.1-.1-.2-.2-.4-.2h-1.9c-.2-2.8-1.5-4.9-1.5-5l-.1-.2h-.2c-3.6-.9-6.7-.9-10.2 0-.7.3-1.8 2.8-2 5.3H2.2v.7l2.2 8.3c.4 1.2 1.4 2 2.8 2h2.3v-1h-1v-2h1v-1h-1v-3zm-1 6h-.3c-.9 0-1.6-.5-1.8-1.2l-.2-.8h2.3v2zm0-3H4.9l-.8-3h3.4v3zm0-4H3.8l-.5-2h4.2v2zm-2-3c.2-2.2 1.1-3.9 1.4-4.4 3.3-.8 6.1-.8 9.4 0 .3.5 1.2 2.2 1.3 4.4H5.5zm10.5 2c-3 0-5.5 2.5-5.5 5.5s2.5 5.5 5.5 5.5 5.5-2.5 5.5-5.5-2.5-5.5-5.5-5.5zm0 10c-2.5 0-4.5-2-4.5-4.5s2-4.5 4.5-4.5 4.5 2 4.5 4.5-2 4.5-4.5 4.5zm-.7-3h-.2l-.7-2.3-1 .2.9 3.1h1.6l2.6-4.1-.8-.6z"/></symbol><symbol viewBox="0 0 24 24" id="basket-close" xmlns="http://www.w3.org/2000/svg"><path d="M8.5 12.5h2v-1h-2v-2h11.4l-.3.9h1l.4-1.1V9c0-.1 0-.3-.1-.4-.1-.1-.2-.2-.4-.2h-1.9c-.2-2.8-1.5-4.9-1.5-5l-.1-.2h-.2c-3.6-.9-6.7-.9-10.2 0-.7.3-1.8 2.8-2 5.3H2.2v.7l2.2 8.3c.4 1.2 1.4 2 2.8 2h2.3v-1h-1v-2h1v-1h-1v-3zM6.9 4.1c3.3-.8 6.1-.8 9.4 0 .3.5 1.2 2.2 1.3 4.4H5.5c.2-2.2 1.1-3.9 1.4-4.4zm.6 5.4v2H3.8l-.5-2h4.2zm-3.4 3h3.4v3H4.9l-.8-3zm3.4 6h-.3c-.9 0-1.6-.5-1.8-1.2l-.2-.8h2.3v2zm8.5-8c-3 0-5.5 2.5-5.5 5.5s2.5 5.5 5.5 5.5 5.5-2.5 5.5-5.5-2.5-5.5-5.5-5.5zm0 10c-2.5 0-4.5-2-4.5-4.5s2-4.5 4.5-4.5 4.5 2 4.5 4.5-2 4.5-4.5 4.5zm1.6-6.6l-1.5 1.5-1.5-1.5-.6.8 1.4 1.3-1.4 1.4.6.8 1.5-1.5 1.5 1.5.6-.8-1.4-1.4 1.4-1.3-.6-.8z"/></symbol><symbol viewBox="0 0 24 24" id="basket-download" xmlns="http://www.w3.org/2000/svg"><path d="M8.5 12.5h2v-1h-2v-2h11.4l-.3.9h1l.4-1.1V9c0-.1 0-.3-.1-.4-.1-.1-.2-.2-.4-.2h-1.9c-.2-2.8-1.5-4.9-1.5-5l-.1-.2h-.2c-3.6-.9-6.7-.9-10.2 0-.7.3-1.8 2.8-2 5.3H2.2v.7l2.2 8.3c.4 1.2 1.4 2 2.8 2h2.3v-1h-1v-2h1v-1h-1v-3zM6.9 4.1c3.3-.8 6.1-.8 9.4 0 .3.5 1.2 2.2 1.3 4.4H5.5c.2-2.2 1.1-3.9 1.4-4.4zm.6 5.4v2H3.8l-.5-2h4.2zm-3.4 3h3.4v3H4.9l-.8-3zm3.4 6h-.3c-.9 0-1.6-.5-1.8-1.2l-.2-.8h2.3v2zm8.5-8c-3 0-5.5 2.5-5.5 5.5s2.5 5.5 5.5 5.5 5.5-2.5 5.5-5.5-2.5-5.5-5.5-5.5zm0 10c-2.5 0-4.5-2-4.5-4.5s2-4.5 4.5-4.5 4.5 2 4.5 4.5-2 4.5-4.5 4.5zm.5-3.1v-3.9h-1v3.9L14 16l-.6.8 2.6 2.4 2.6-2.4-.6-.8-1.5 1.4z"/></symbol><symbol viewBox="0 0 24 24" id="basket-update" xmlns="http://www.w3.org/2000/svg"><path d="M8.5 12.5h2v-1h-2v-2h11.4l-.3.9h1l.4-1.1V9c0-.1 0-.3-.1-.4-.1-.1-.2-.2-.4-.2h-1.9c-.2-2.8-1.5-4.9-1.5-5l-.1-.2h-.2c-3.6-.9-6.7-.9-10.2 0-.7.3-1.8 2.8-2 5.3H2.2v.7l2.2 8.3c.4 1.2 1.4 2 2.8 2h2.3v-1h-1v-2h1v-1h-1v-3zM6.9 4.1c3.3-.8 6.1-.8 9.4 0 .3.5 1.2 2.2 1.3 4.4H5.5c.2-2.2 1.1-3.9 1.4-4.4zm.6 5.4v2H3.8l-.5-2h4.2zm-3.4 3h3.4v3H4.9l-.8-3zm3.4 6h-.3c-.9 0-1.6-.5-1.8-1.2l-.2-.8h2.3v2zm8.5-8c-3 0-5.5 2.5-5.5 5.5s2.5 5.5 5.5 5.5 5.5-2.5 5.5-5.5-2.5-5.5-5.5-5.5zm0 10c-2.5 0-4.5-2-4.5-4.5s2-4.5 4.5-4.5 4.5 2 4.5 4.5-2 4.5-4.5 4.5zm1.9-5.9c-.5-.7-1.3-1.2-2.2-1.2-1.5 0-2.7 1.2-2.7 2.7s1.2 2.7 2.7 2.7h.5v-1h-.5c-.9 0-1.7-.8-1.7-1.7 0-.9.8-1.7 1.7-1.7.6 0 1.1.4 1.4.8l-1-.1-.1 1 2.7.2.2-2.6-1-.1v1zm-.3.6l.2-.1v.1h-.2z"/></symbol><symbol viewBox="0 0 24 24" id="close" xmlns="http://www.w3.org/2000/svg"><path d="M8.9 16l3.1-3.2 3.1 3.2.8-.8-3.2-3.1L15.9 9l-.8-.8-3.1 3.2-3.1-3.2-.8.8 3.2 3.1-3.2 3.1.8.8zM12 2.1c-1.5 0-2.9.3-4.3.9l.4 1c1.3-.6 2.5-.9 3.9-.9 5 0 9 4 9 9s-4 9-9 9-9-4-9-9c0-1.3.3-2.4.7-3.3l-1-.4c-.3 1-.7 2.2-.7 3.7 0 5.5 4.5 10 10 10s10-4.5 10-10-4.5-10-10-10z"/></symbol><symbol viewBox="0 0 24 24" id="delete" xmlns="http://www.w3.org/2000/svg"><path d="M8.9 16l3.1-3.2 3.1 3.2.8-.8-3.2-3.1L15.9 9l-.8-.8-3.1 3.2-3.1-3.2-.8.8 3.2 3.1-3.2 3.1.8.8zM12 2.1c-1.5 0-2.9.3-4.3.9l.4 1c1.3-.6 2.5-.9 3.9-.9 5 0 9 4 9 9s-4 9-9 9-9-4-9-9c0-1.3.3-2.4.7-3.3l-1-.4c-.3 1-.7 2.2-.7 3.7 0 5.5 4.5 10 10 10s10-4.5 10-10-4.5-10-10-10z"/></symbol><symbol viewBox="0 0 24 24" id="download" xmlns="http://www.w3.org/2000/svg"><path d="M12.5 19.5v-8h-1v8l-3.3-3.2-.6.8 4.4 4.3 4.4-4.3-.6-.8-3.3 3.2zm1.5-11h1c0-1.6-.7-3.5-4-3.5v1c2.1 0 3 .8 3 2.5zm7.9 1.1c-.3-1.3-1.5-2.8-3.9-2.7-.4-3-3.2-5.4-6.5-5.4-2.9 0-5.2 1.5-5.9 3.9-2.4.4-3.7 2.1-3.6 4.7.1 2 1.8 3.4 4.1 3.4h1.4v-1H6.1c-1.4 0-3-.6-3.1-2.4 0-1 .1-3.5 3-3.7.2 0 .4-.2.4-.4.6-2.6 3-3.5 5-3.5 2.8 0 5.2 2 5.5 4.5v.4c0 .1.1.3.2.4s.2.1.4.1c2.6-.3 3.2 1.4 3.4 1.9.2 1 0 2.2-1 2.7h-3.4v1h3.7c1.4-.6 2.1-2.2 1.7-3.9z"/></symbol><symbol viewBox="0 0 24 24" id="downloadcenter-checkmark" xmlns="http://www.w3.org/2000/svg"><path d="M16 8.9l-.8-.6-4.7 7.2h-.9l-1.5-4.7-1 .2 1.7 5.5h2.3L16 8.9zm-4-6.8c-1.5 0-2.9.3-4.3.9l.4 1c1.3-.6 2.5-.9 3.9-.9 5 0 9 4 9 9s-4 9-9 9-9-4-9-9c0-1.3.3-2.4.7-3.3l-1-.4c-.3 1-.7 2.2-.7 3.7 0 5.5 4.5 10 10 10s10-4.5 10-10-4.5-10-10-10z"/></symbol><symbol viewBox="0 0 24 24" id="export-pdf" xmlns="http://www.w3.org/2000/svg"><path d="M16.4 1.8l-.8.7L20.1 7h-4.8c-2.7 0-5.1 1-6.8 2.9C7 11.5 6.1 13.5 6 16h1c.1-2.2.9-4.1 2.3-5.5 1.5-1.6 3.6-2.5 6-2.5h4.2l-3.7 3.8.7.7 5.3-5.3-5.4-5.4zM15.1 21H4.5c-1 0-1.5-1.1-1.5-2.2V4.7C3 3.5 3.5 3 4.7 3H13V2H4.7C3 2 2 2.9 2 4.7v14c0 1.7.8 3.3 2.5 3.3h10.6c1.5 0 2.9-1.4 2.9-3h-1c0 1.1-1 2-1.9 2zm-4.2-4.5c.8 0 1.3-.7 1.3-1.3S11.8 14 11 14H9.5v4h.8v-1.5h.6zm-.5-1.8h.6c.3 0 .5.2.5.5s-.3.5-.6.5h-.5v-1zm5.9 1.3c0-1-.7-2-2-2v.1h-1.4v4h1.3c1.4 0 2.1-1.1 2.1-2.1zm-2.1 1.3h-.6v-2.6h.6c.8 0 1.2.6 1.2 1.3s-.4 1.3-1.2 1.3zm2.8.7h.8v-1.6h1.3v-.7h-1.3v-1h1.6V14H17z"/></symbol><symbol viewBox="0 0 819 819" id="full-error" xmlns="http://www.w3.org/2000/svg"><path d="M438.657 18l377 751q8 17-1.5 33.5t-28.5 16.5h-752q-19 0-28.5-16.5t-1.5-33.5l377-751q9-18 29-18t29 18zm17 300q-6-1-14-1.5t-16-.5q-18 0-37 2.5t-32 6.5l23 258q6 1 13.5 1.5t16.5.5q8 0 15.5-.5t12.5-1.5l18-265zm-47 305q-20 0-33.5 12t-13.5 33q0 24 12 36t35 12q20 0 33-12.5t13-35.5q0-22-13-33.5t-33-11.5z"/></symbol><symbol viewBox="0 0 819 819" id="info" xmlns="http://www.w3.org/2000/svg"><path d="M338 406q0-7 4.5-25.5T353 356q13-8 33-12t41-4q7 0 17.5 1.5T463 345l-26 217q0 2 1 5.5t2 4.5l40-4q0 10-5 26.5T465 620q-15 6-42.5 11t-46.5 5q-8-8-17-25.5t-9-27.5l29-180-41 3zm142-174q0 26-14 40t-35 14q-24 0-36.5-13.5T382 232q0-21 14-35.5t35-14.5q22 0 35.5 13t13.5 37zM409 68q71 0 133 27t108.5 73 73 108.5T750 409q0 71-26.5 133t-73 108.5T542 724t-133 27-133-27-108.5-73.5-73-108.5T68 409q0-41 9.5-80t27.5-75l-61-31q-22 43-33 90T0 409q0 85 32 159.5T119.5 699t130 88T409 819t159.5-32 130-88 88-130.5T819 409t-32.5-159.5-88-130-130-87.5T409 0q-49 0-96 11t-90 33l31 61q36-18 75-27.5t80-9.5z"/></symbol><symbol viewBox="0 0 24 24" id="loading" xmlns="http://www.w3.org/2000/svg"><path d="M15 9h7V2h-1v5.2L19.9 6c-.8-1.1-2-2.1-3.4-2.8-2.3-1.2-5-1.4-7.6-.6-2.5.8-4.5 2.5-5.7 4.9-2.5 4.9-.6 11 4.3 13.5 1.4.7 2.9 1.1 4.5 1.1 2.9 0 5.9-1.3 7.8-3.7l-.8-.7C16.3 21 11.6 22 7.9 20.1 3.5 17.8 1.8 12.4 4 7.9c1.1-2.1 3-3.7 5.2-4.4 2.4-.7 4.8-.6 6.9.5 1.3.7 2.3 1.5 3.1 2.6L20.3 8H15v1z"/></symbol><symbol viewBox="0 0 24 24" id="login" xmlns="http://www.w3.org/2000/svg"><path d="M9 17.4l.8.8 5.6-5.7-5.6-5.7-.8.8 4.5 4.4H2v1h11.5L9 17.4zm2.9-15.5c-1.5 0-2.9.3-4.3.9l.4 1c1.3-.6 2.5-.9 3.9-.9 5 0 9 4 9 9s-4 9-9 9c-1.2 0-2.5-.3-3.7-.8l-.4.9c1.3.6 2.7.8 4.1.8 5.5 0 10-4.5 10-10s-4.5-9.9-10-9.9z"/></symbol><symbol viewBox="0 0 24 24" id="logout" xmlns="http://www.w3.org/2000/svg"><path d="M15.8 18.2l5.6-5.7-5.6-5.7-.8.8 4.5 4.4H9v1h10.5L15 17.4l.8.8zm-3.4 2.7c-5 0-9-4-9-8.9s4-8.9 9-8.9c1.4 0 2.6.3 3.9.9l.4-1c-1.4-.6-2.8-.9-4.3-.9-5.5 0-10 4.4-10 9.9s4.5 9.9 10 9.9c1.4 0 2.8-.3 4.1-.8l-.4-.9c-1.2.4-2.5.7-3.7.7z"/></symbol><symbol viewBox="0 26 18 24" id="marker" xmlns="http://www.w3.org/2000/svg"><path d="M17.336 33.188l-6.746-6.547A2.293 2.293 0 0 0 8.996 26c-.576 0-1.153.213-1.592.641L.655 33.188a2.138 2.138 0 0 0-.483 2.383c.25.582.745 1.02 1.333 1.223v4.109c0 1.207.998 2.176 2.242 2.176h1.567l1.345 4.104c-2.492.209-4.263.74-4.263 1.363 0 .803 2.955 1.455 6.6 1.455 3.646 0 6.6-.65 6.6-1.453 0-.623-1.771-1.156-4.261-1.365l1.344-4.104h1.566c1.243 0 2.262-.969 2.262-2.176v-4.109a2.225 2.225 0 0 0 1.324-1.223 2.146 2.146 0 0 0-.495-2.383zm-3.079 1.558v6.148h-3.229L9 47.094h-.01l-2.029-6.199H3.753v-6.148H2.248l6.749-6.549 6.746 6.549h-1.486z"/><path d="M8.354 35.6a.488.488 0 0 0-.497-.482H6.041a.489.489 0 0 0-.497.482v1.764c0 .266.222.48.497.48h1.815a.488.488 0 0 0 .497-.48V35.6z"/></symbol><symbol viewBox="0 0 24 24" id="memorize" xmlns="http://www.w3.org/2000/svg"><path d="M12.5 19.4c-.4.2-.4.2-.8 0l-.4-.4-.7.7.5.5.2.1c.4.2.7.3.9.3s.5-.1.9-.3l.7-.6-.7-.7-.6.4zM15.6 4c-1.4 0-2.7.5-3.7 1.6-1-1-2.3-1.6-3.7-1.6-3 0-5.3 2.4-5.3 5.5 0 1.6.6 3 1.6 4l5.8 6.1.7-.7-5.8-6.1c-.8-.8-1.3-2-1.3-3.3C3.9 7 5.8 5 8.2 5c1.3 0 2.5.6 3.3 1.6l.4.5.4-.5c.9-1 2-1.6 3.3-1.6 2.4 0 4.3 2 4.3 4.5 0 1.3-.5 2.5-1.4 3.4l-1.9 2 .7.7 1.9-2c1.1-1.1 1.6-2.5 1.6-4.1.1-3.1-2.2-5.5-5.2-5.5z"/></symbol><symbol viewBox="0 0 24 24" id="memorized" xmlns="http://www.w3.org/2000/svg"><path d="M12.5 19.4c-.4.2-.4.2-.8 0l-.4-.4-.7.7.5.5.2.1c.4.2.7.3.9.3s.5-.1.9-.3l.7-.6-.7-.7-.6.4zm1.3.3l5.4-6.1c1.1-1.1 1.6-2.5 1.6-4.1.1-3.1-2.2-5.5-5.2-5.5-1.4 0-2.7.5-3.7 1.6-1-1-2.3-1.6-3.7-1.6-3 0-5.3 2.4-5.3 5.5 0 1.6.6 3 1.6 4l6.1 6.2"/></symbol><symbol viewBox="0 0 24 24" id="menu-close" xmlns="http://www.w3.org/2000/svg"><path d="M3.702 19.361l6.93-6.93.707.707-6.93 6.93zm9.067-9.138l7.425-7.425.707.707-7.425 7.425zM3.244 3.651l.707-.707 16.405 16.405-.707.707z"/></symbol><symbol viewBox="0 0 24 24" id="menu-open" xmlns="http://www.w3.org/2000/svg"><path d="M4 5h16v1H4zm0 6h16v1H4zm0 6h16v1H4z"/></symbol><symbol viewBox="0 0 30 30" id="people" xmlns="http://www.w3.org/2000/svg"><path d="M17 20.263v-1.684s1.568-1.478 1.682-2.486c0 0 .818-.565.818-1.578 0-.702-.313-.808-.313-.808s.563-1.069.563-2.089C19.75 9.573 18.724 8 17 8c0 0-.732-1-2-1-2.692 0-4.875 1.622-4.875 4.524 0 1.227.688 2.183.688 2.183s-.313.153-.313.808c0 1.273.818 1.578.818 1.578.114 1.008 1.682 2.486 1.682 2.486v1.684c-.842 2.526-6 .862-6 6.737h16c0-5.895-5.158-4.211-6-6.737z"/><path d="M21.75 11.618c0 .735-.172 1.441-.358 1.989.069.271.108.573.108.908 0 2.47-2.5 4.934-2.5 4.934.543.237 2.28 1.12 2.99 1.551H30c0-5.25-4.263-3.75-5-6v-1.5c.332-.167 1.122-1.316 1.222-2.214.26-.02.778-.657.778-1.226s-.18-.807-.337-.899c0 0 .337-.752.337-1.661 0-1.821-.492-3.5-2-3.5 0 0-.433-1-2-1-2.223 0-3.588 1.529-3.918 3.533 1.616.866 2.668 2.734 2.668 5.085zM11 19.392c-.543-.58-1.327-1.582-1.612-2.341-.624-.313-1.151-.682-1.388-1.3v-1.008c.19 0 .751-.044.948-.088-.446-.687-.823-2.253-.823-3.131 0-2.233.961-4.07 2.556-5.221C10.2 4.462 9.132 3 6.601 3 5.687 3 5 4 5 4c-5.235 0-2.346 8.355-3.884 9.587 0 0 .942 1.167 3.884 1.167v.998C4.187 17.87 0 17.087 0 21h8.023C8.727 20.574 11 19.392 11 19.392z"/></symbol><symbol viewBox="-11 13 24 24" id="search" xmlns="http://www.w3.org/2000/svg"><path d="M-6 22h-1c0-2.8 2.2-5 5-5v1c-2.2 0-4 1.8-4 4zm3.5 6C-6.1 28-9 25.1-9 21.5S-6.1 15-2.5 15 4 17.9 4 21.5 1.1 28-2.5 28zm0-12c-3 0-5.5 2.5-5.5 5.5S-5.5 27-2.5 27 3 24.5 3 21.5.5 16-2.5 16zm5.897 10.619l7.283 7.283-.707.707-7.283-7.283z"/></symbol><symbol viewBox="0 0 24 24" id="user" xmlns="http://www.w3.org/2000/svg"><path d="M18.9 13.8l-.1-.2-.2-.1c-4.6-1.4-8.7-1.4-13.3 0l-.2.1-.1.2c0 .1-2 3.6-2 8.2h1c0-3.8 1.5-6.8 1.8-7.6 4.2-1.3 8.1-1.3 12.3 0 .4.7 1.8 3.8 1.8 7.6h1c.1-4.6-1.9-8.1-2-8.2zM12 11.9c2.4 0 4.3-1.9 4.3-4.3S14.4 3.3 12 3.3 7.7 5.2 7.7 7.6s1.9 4.3 4.3 4.3zm0-7.6c1.8 0 3.3 1.5 3.3 3.3s-1.5 3.3-3.3 3.3-3.3-1.5-3.3-3.3 1.5-3.3 3.3-3.3z"/></symbol><symbol viewBox="0 0 30 30" id="user_group_man_women" xmlns="http://www.w3.org/2000/svg"><path d="M12.684 19.993A2.217 2.217 0 0 1 12 19v-2c.383-.189 1.363-1.324 1.734-2.395-.314-.498-.56-1.125-.664-1.94a3.365 3.365 0 0 1 .223-1.755C13.138 10.371 13 9.696 13 9c0-1.386.287-2.655.799-3.757A2.454 2.454 0 0 0 12 4.5S11.626 3 9.5 3C6.012 3 4 5.721 4 9c0 1.104.528 2.214.528 2.214-.212.122-.562.51-.474 1.198.164 1.283.72 1.608 1.074 1.635C5.263 15.245 6.55 16.777 7 17v2c-1 3-7 1-7 8h9c0-4.176 1.864-6.01 3.684-7.007z"/><path d="M23 19v-2c.45-.223 1.737-1.755 1.872-2.952.354-.027.91-.352 1.074-1.635.088-.689-.262-1.076-.474-1.198 0 0 .528-1.003.528-2.214 0-2.428-.953-4.5-3-4.5 0 0-.374-1.5-2.5-1.5C17.012 3 15 5.721 15 9c0 1.104.528 2.214.528 2.214-.212.122-.562.51-.474 1.198.164 1.283.72 1.608 1.074 1.635.135 1.198 1.422 2.73 1.872 2.953v2c-1 3-7 1-7 8h19c0-7-6-5-7-8z"/></symbol></svg>