<svg xmlns="http://www.w3.org/2000/svg" viewBox="0 0 178.3 67"><g><path class="st0" d="M114.2,33.2c-1.9,0-3.2,1.1-3.4,3.2c-0.1,1.3-0.1,2.6,0,4c0.2,1.8,1.4,2.8,3.2,2.9c1.7,0.1,2.9-0.9,3.3-2.6c0-0.1,0-0.2,0.1-0.4c0-0.4,0.3-3.1-0.1-4.6C116.9,34.2,115.8,33.3,114.2,33.2z"/><path class="st0" d="M94,33.2c-1.2,0-2.2,0.6-2.7,1.6c-0.6,1.3-0.5,4-0.4,5.3c0,0,0,0,0,0c0.1,0.8,0.5,2.2,1.9,3c0.3,0.1,0.7,0.2,1.2,0.3c1.7,0.1,3.2-0.8,3.4-2.6c0.2-1.6,0.2-3.2,0-4.8C97,34.1,95.7,33.2,94,33.2z"/><path class="st0" d="M39.3,33.2c-1.6,0-2.8,0.7-3.2,2.3c0,0.2-0.5,2.9-0.1,5.2c0.4,1.6,1.5,2.5,3.1,2.6c1.6,0.1,3-1,3.2-2.7c0.2-1.6,0.2-3.2,0-4.7C42.2,34.2,40.9,33.3,39.3,33.2z"/><path class="st0" d="M76.4,33.1c-1.2-0.7-2.5-0.6-3.7,0.1c-1.1,0.7-1.3,1.9-1.3,3.1h6.3C77.7,35.1,77.6,33.8,76.4,33.1z"/><path class="st0" d="M134.1,33.2c-1.9,0-3.2,1.1-3.4,3.2c-0.1,1.3-0.1,2.6,0,4c0.2,1.8,1.4,2.8,3.2,2.9c1.7,0.1,2.9-0.9,3.3-2.6c0-0.1,0-0.2,0.1-0.4c0-0.3,0.3-3.1-0.1-4.6C136.8,34.2,135.7,33.3,134.1,33.2z"/><path class="st0" d="M0,0v67h178.3V0H0z M25.3,33.9v13.4h-5.6V33.9h-3.8V29h3.6c0-0.5,0-4.1,0.2-5c0,0,0,0,0,0c0,0,0,0,0,0c1.7-6.4,10.1-4.4,10.3-4.4h0v0h0v4.3l0,0l0,0.2c0,0-4.3-0.5-4.6,2.1V29h4.2H30l-0.5,4.9H25.3z M48.3,47.4h-5.4v-2.4c-0.1,0.2-0.2,0.3-0.2,0.3c-0.9,1.1-1.9,1.9-3.2,2.2c-4.3,0.9-8.2-0.9-9.2-6.3c-0.4-2.5-0.4-5,0.3-7.4c1.2-4,5.1-6.1,9-4.9c1,0.3,1.5,0.6,2.8,2c0,0,0.1,0.1,0.1,0.1c0,0,0,0,0,0v0c0.1,0.1,0.1,0.1,0.2,0.2h0V29h5.4V47.4z M64.8,46.8c-0.9,0.3-2.1,0.7-2.9,0.9c-2,0.3-4,0.3-5.9-0.3c-3-0.9-4.8-2.8-5.5-5.9c-0.4-2-0.5-4.1-0.1-6.1c0.7-3.8,3.4-6.2,7.4-6.6c1.9-0.2,3.7-0.2,5.5,0.4h0c0,0,0.1,0,0.2,0.1c0.2,0.1,0.3,0.1,0.5,0.2c0.4,0.2,0.7,0.3,0.8,0.4c0,0,0,0,0,0c0.1,0.1,0.2,0.2,0.3,0.2l-0.2,0.6h0c0,0.1-0.1,0.3-0.1,0.4c-0.3,1-0.6,2-1,2.9c-0.9-0.2-1.8-0.5-2.6-0.6c-0.6-0.1-1.3-0.1-1.9-0.1c-1.9,0.2-3,1.2-3.3,3.1c-0.1,1-0.2,2.1-0.1,3.1c1.1,6.2,7.9,2.9,7.9,2.9l0.3,1c0.3,0.9,0.6,1.8,0.8,2.7l0,0l0.2,0.5L64.8,46.8zM82.9,40.3c0,0-0.7,0-0.7,0l0,0c-0.1,0-0.2,0-0.2,0c-3.2,0-6.4,0-9.6,0h-0.9c-0.1,2.1,1.2,2.9,2.8,3.2c1,0.1,2,0.1,3,0c1.2-0.2,2.3-0.4,3.1-0.6c0,0,0.1,0,0.1,0c0.2-0.1,0.4-0.1,0.7-0.2c0,0,0,0,0,0c0.2-0.1,0.3-0.1,0.3-0.1l0,0.1c0.3,1,0.6,2,0.8,3c0,0,0,0,0,0l0.2,0.8c-5.1,2.6-10.9,1.1-12.1,0.7c0,0,0,0,0,0c0,0,0,0,0,0c0,0,0,0,0,0c-2.6-0.9-4.1-2.9-4.5-6c-0.3-2.1-0.2-4.2,0.1-6.3c0.6-3.4,3.3-5.6,6.9-6c1.3-0.1,2.7-0.2,4,0.1c3.4,0.6,5.5,2.7,6,6.2c0.2,1.3,0.2,2.5,0.2,3.8l0,1.2C82.9,40.1,82.9,40.3,82.9,40.3z M102.6,43c-1.6,4.5-6.1,5.5-9.5,4.3c-0.9-0.3-1.7-1-2.4-1.6v1.6h-5.8V19.9l5.8-0.7v0.7V20v10.5v0.6c1.6-1.9,3.5-2.6,5.7-2.4c3.4,0.4,5.6,2.2,6.4,5.4C103.6,37.1,103.6,40.1,102.6,43z M123,41.4c-0.9,3.7-3.8,6.2-7.7,6.4c0,0-0.1,0-0.1,0c0,0,0,0,0,0c-0.8,0.1-1.7,0-2.4,0c-0.2,0-0.4,0-0.6-0.1c0,0,0,0,0,0c0,0-0.1,0-0.1,0c-0.1,0-0.3,0-0.4-0.1c0,0,0,0,0,0h0c-0.1,0-0.1,0-0.2,0c-3.7-0.9-6.2-3.6-6.4-7.5c-0.1-1.7,0-3.5,0.3-5.1c0.7-3,2.7-5,5.7-5.8c2-0.5,4.1-0.5,6.1,0c3.2,0.9,5.2,2.9,5.9,6.2C123.5,37.3,123.5,39.3,123,41.4z M142.9,41.4c-0.9,3.7-3.8,6.2-7.7,6.4c0,0-0.1,0-0.1,0c0,0,0,0,0,0c-0.8,0.1-1.7,0-2.4,0c-0.2,0-0.4,0-0.6-0.1c0,0,0,0,0,0c0,0-0.1,0-0.1,0c-0.1,0-0.3,0-0.4-0.1c0,0,0,0,0,0h0c-0.1,0-0.1,0-0.2,0c-3.7-0.9-6.2-3.6-6.4-7.5c-0.1-1.7,0-3.5,0.3-5.1c0.7-3,2.7-5,5.7-5.8c2-0.5,4.1-0.5,6.1,0c3.2,0.9,5.2,2.9,5.9,6.2C143.4,37.3,143.4,39.3,142.9,41.4z M162.5,47.5h-6.2l-5.4-8.4v8.4h-5.8V19.9l5.8-0.7v0.7V20v17.5l5.4-8.4h6.2l-5.8,9.1L162.5,47.5z"/></g></svg>
