<svg xmlns="http://www.w3.org/2000/svg" viewBox="0 0 320.8 87.5">
  <style type="text/css">
  .st0{fill:#3D1C00;}
  .st1{fill:none;stroke:#F80808;stroke-width:0.873;stroke-linecap:round;stroke-linejoin:round;stroke-miterlimit:10;}
  .st2{fill:none;stroke:#8A685F;stroke-width:1.0572;stroke-linecap:round;stroke-linejoin:round;stroke-miterlimit:10;}
  .st3{fill:none;stroke:#918579;stroke-width:1.0572;stroke-linecap:round;stroke-linejoin:round;stroke-miterlimit:10;}
  .st4{fill:#F80808;}
  </style>
  <g>
    <path class="st0" d="M1.6,31.9v-1.3l2.4-0.2V12.3l-2.4-0.2v-1.3h2.4h1.7H8v1.3l-2.4,0.2v18.1h8.8l0.1-3h1.5v4.4H1.6z"/>
    <path class="st0" d="M29.7,29.4c-0.5,0.9-1.2,1.6-2,2.1c-0.9,0.5-1.9,0.8-3,0.8c-1.6,0-2.9-0.6-3.9-1.7c-0.9-1.1-1.4-2.9-1.4-5.2
    v-7.6l-1.9-0.2v-1.3h1.9h1.7v9.1c0,1.9,0.3,3.3,1,4.1c0.7,0.8,1.6,1.2,2.8,1.2c1.3,0,2.4-0.3,3.1-0.9c0.8-0.6,1.3-1.4,1.6-2.4v-9.7
    l-2.2-0.2v-1.3h2.2h1.7v14.2l2.1,0.2v1.3h-3.6L29.7,29.4z"/>
    <path class="st0" d="M38.2,30.5h8.5l0.1-3h1.5v4.4H36.1v-1.3l9.4-12.9h-7.7l-0.1,3h-1.5v-4.4h11.6v1.3L38.2,30.5z"/>
    <path class="st0" d="M57.9,32.2c-2,0-3.6-0.7-4.9-2.2c-1.3-1.4-1.9-3.3-1.9-5.5v-0.8c0-2.2,0.6-4.1,1.9-5.6
    c1.3-1.5,2.8-2.2,4.7-2.2c1.9,0,3.4,0.6,4.5,1.8c1.1,1.2,1.7,2.8,1.7,4.9v1.5H52.7v0.4c0,1.8,0.5,3.2,1.4,4.4
    c0.9,1.2,2.2,1.8,3.7,1.8c1.1,0,2-0.1,2.8-0.4c0.8-0.3,1.4-0.7,2-1.3l0.7,1.2c-0.6,0.6-1.3,1.1-2.2,1.5S59.1,32.2,57.9,32.2z
    M57.6,17.5c-1.3,0-2.3,0.5-3.2,1.5c-0.9,1-1.4,2.2-1.5,3.7l0,0.1h9.2v-0.4c0-1.4-0.4-2.5-1.2-3.4C60.1,17.9,59,17.5,57.6,17.5z"/>
    <path class="st0" d="M70.1,16.3l0.2,2.6v0.2c0.4-1,1-1.7,1.8-2.3c0.8-0.5,1.7-0.8,2.7-0.8c0.2,0,0.4,0,0.6,0.1
    c0.2,0,0.4,0.1,0.5,0.1l-0.2,1.6l-1.3-0.1c-1.1,0-2,0.3-2.7,0.9c-0.7,0.6-1.2,1.5-1.5,2.5v9.4l2.4,0.2v1.3h-6.4v-1.3l2.4-0.2V17.7
    l-2.4-0.2v-1.3h2.4H70.1z"/>
    <path class="st0" d="M78.3,30.7l2.4-0.2V17.7l-2.4-0.2v-1.3h3.9l0.2,2.7c0.5-1,1.2-1.7,2-2.2c0.9-0.5,1.9-0.8,3-0.8
    c1.7,0,3,0.5,3.9,1.6c0.9,1,1.3,2.7,1.3,4.9v8.1l2.4,0.2v1.3h-6.5v-1.3l2.4-0.2v-8.1c0-1.8-0.3-3.1-1-3.8s-1.6-1.1-2.9-1.1
    c-1.2,0-2.2,0.3-3,1c-0.8,0.6-1.3,1.5-1.7,2.6v9.5l2.4,0.2v1.3h-6.5V30.7z"/>
    <path class="st0" d="M103.4,32.2c-2,0-3.6-0.7-4.9-2.2c-1.3-1.4-1.9-3.3-1.9-5.5v-0.8c0-2.2,0.6-4.1,1.9-5.6
    c1.3-1.5,2.8-2.2,4.7-2.2c1.9,0,3.4,0.6,4.5,1.8c1.1,1.2,1.7,2.8,1.7,4.9v1.5H98.3v0.4c0,1.8,0.5,3.2,1.4,4.4
    c0.9,1.2,2.2,1.8,3.7,1.8c1.1,0,2-0.1,2.8-0.4c0.8-0.3,1.4-0.7,2-1.3l0.7,1.2c-0.6,0.6-1.3,1.1-2.2,1.5S104.7,32.2,103.4,32.2z
    M103.2,17.5c-1.3,0-2.3,0.5-3.2,1.5c-0.9,1-1.4,2.2-1.5,3.7l0,0.1h9.2v-0.4c0-1.4-0.4-2.5-1.2-3.4
    C105.6,17.9,104.6,17.5,103.2,17.5z"/>
    <path class="st0" d="M115.7,16.3l0.2,2.6v0.2c0.4-1,1-1.7,1.8-2.3c0.8-0.5,1.7-0.8,2.7-0.8c0.2,0,0.4,0,0.6,0.1
    c0.2,0,0.4,0.1,0.5,0.1l-0.2,1.6l-1.3-0.1c-1.1,0-2,0.3-2.7,0.9c-0.7,0.6-1.2,1.5-1.5,2.5v9.4l2.4,0.2v1.3h-6.4v-1.3l2.4-0.2V17.7
    l-2.4-0.2v-1.3h2.4H115.7z"/>
    <path class="st0" d="M139.1,24.5h-2.8v7.5h-5.1V10.9h8.3c2.5,0,4.5,0.6,5.9,1.7c1.4,1.1,2.1,2.7,2.1,4.7c0,1.5-0.3,2.7-0.9,3.6
    c-0.6,1-1.5,1.7-2.8,2.3l4.4,8.5v0.2h-5.4L139.1,24.5z M136.3,20.6h3.2c1,0,1.7-0.3,2.2-0.8c0.5-0.5,0.7-1.2,0.7-2.1
    s-0.2-1.6-0.7-2.1c-0.5-0.5-1.2-0.8-2.2-0.8h-3.2V20.6z"/>
    <path class="st0" d="M149.2,24c0-1.6,0.3-3,0.9-4.2c0.6-1.2,1.5-2.2,2.6-2.8s2.5-1,4-1c2.3,0,4.2,0.7,5.5,2.2c1.4,1.5,2,3.4,2,5.9
    v0.2c0,2.4-0.7,4.4-2,5.8c-1.4,1.4-3.2,2.1-5.5,2.1c-2.2,0-4-0.7-5.4-2c-1.4-1.3-2.1-3.1-2.2-5.4L149.2,24z M154.1,24.3
    c0,1.4,0.2,2.5,0.7,3.2c0.5,0.7,1.1,1,2,1c1.7,0,2.6-1.3,2.7-4V24c0-2.8-0.9-4.2-2.7-4.2c-1.6,0-2.5,1.2-2.6,3.6L154.1,24.3z"/>
    <path class="st0" d="M171.4,31.9h-4.9V9.7h4.9V31.9z"/>
    <path class="st0" d="M179.2,31.9h-4.9V9.7h4.9V31.9z"/>
    <path class="st0" d="M189.6,32.2c-2.4,0-4.3-0.7-5.8-2.1c-1.5-1.4-2.2-3.3-2.2-5.6v-0.4c0-1.6,0.3-3,0.9-4.2
    c0.6-1.2,1.5-2.2,2.6-2.8c1.1-0.7,2.5-1,4.1-1c2.2,0,3.9,0.7,5.2,2c1.3,1.4,1.9,3.3,1.9,5.7v1.9h-9.7c0.2,0.9,0.6,1.6,1.1,2.1
    s1.4,0.8,2.3,0.8c1.5,0,2.8-0.5,3.6-1.6l2.2,2.6c-0.6,0.8-1.5,1.5-2.6,2C192,32,190.8,32.2,189.6,32.2z M189,19.7
    c-1.4,0-2.3,0.9-2.5,2.8h4.9v-0.4c0-0.8-0.2-1.4-0.6-1.8C190.4,20,189.8,19.7,189,19.7z"/>
    <path class="st0" d="M202.7,16.3l0.2,1.8c1.1-1.4,2.6-2.1,4.5-2.1c1.6,0,2.8,0.5,3.7,1.5c0.8,1,1.2,2.4,1.3,4.4v10.1h-4.9V22
    c0-0.8-0.2-1.4-0.5-1.7c-0.3-0.4-0.9-0.6-1.7-0.6c-1,0-1.7,0.4-2.1,1.1v11.1h-4.9V16.3H202.7z"/>
    <path class="st0" d="M223,27.5c0-0.4-0.2-0.7-0.7-1c-0.4-0.3-1.3-0.5-2.5-0.8s-2.2-0.6-3-1.1s-1.4-1-1.8-1.6
    c-0.4-0.6-0.6-1.3-0.6-2.2c0-1.4,0.6-2.6,1.8-3.6c1.2-0.9,2.7-1.4,4.7-1.4c2.1,0,3.7,0.5,5,1.4c1.3,0.9,1.9,2.2,1.9,3.7h-4.9
    c0-1.3-0.7-1.9-2-1.9c-0.5,0-0.9,0.1-1.3,0.4c-0.3,0.3-0.5,0.6-0.5,1.1c0,0.4,0.2,0.8,0.6,1.1c0.4,0.3,1.1,0.5,2,0.7
    c0.9,0.2,1.7,0.4,2.5,0.6c2.4,0.8,3.5,2.3,3.5,4.4c0,1.4-0.6,2.6-1.9,3.5c-1.3,0.9-2.9,1.3-4.9,1.3c-1.3,0-2.5-0.2-3.6-0.7
    s-1.9-1.1-2.5-2s-0.9-1.7-0.9-2.6h4.6c0,0.7,0.3,1.3,0.7,1.6c0.5,0.3,1.1,0.5,1.8,0.5c0.7,0,1.2-0.1,1.5-0.4
    C222.8,28.3,223,28,223,27.5z"/>
    <path class="st0" d="M244.4,24.2c0,2.4-0.5,4.4-1.6,5.8c-1.1,1.5-2.6,2.2-4.4,2.2c-1.4,0-2.6-0.5-3.5-1.6V38h-4.9V16.3h4.6l0.1,1.4
    c0.9-1.2,2.2-1.7,3.7-1.7c1.9,0,3.4,0.7,4.5,2.1c1.1,1.4,1.6,3.4,1.6,5.9V24.2z M239.6,23.9c0-2.8-0.8-4.2-2.4-4.2
    c-1.2,0-1.9,0.4-2.3,1.2v6.2c0.4,0.9,1.2,1.3,2.3,1.3c1.6,0,2.4-1.3,2.4-4V23.9z"/>
    <path class="st0" d="M246.3,12.2c0-0.7,0.3-1.3,0.8-1.7c0.5-0.4,1.2-0.7,2-0.7c0.8,0,1.5,0.2,2,0.7c0.5,0.4,0.8,1,0.8,1.7
    c0,0.7-0.3,1.3-0.8,1.7c-0.5,0.4-1.2,0.7-2,0.7c-0.8,0-1.5-0.2-2-0.7C246.6,13.5,246.3,12.9,246.3,12.2z M251.5,31.9h-4.9V16.3h4.9
    V31.9z"/>
    <path class="st0" d="M261.8,32.2c-2.4,0-4.3-0.7-5.8-2.1c-1.5-1.4-2.2-3.3-2.2-5.6v-0.4c0-1.6,0.3-3,0.9-4.2
    c0.6-1.2,1.5-2.2,2.6-2.8c1.1-0.7,2.5-1,4.1-1c2.2,0,3.9,0.7,5.2,2c1.3,1.4,1.9,3.3,1.9,5.7v1.9h-9.7c0.2,0.9,0.6,1.6,1.1,2.1
    s1.4,0.8,2.3,0.8c1.5,0,2.8-0.5,3.6-1.6l2.2,2.6c-0.6,0.8-1.5,1.5-2.6,2C264.2,32,263,32.2,261.8,32.2z M261.2,19.7
    c-1.4,0-2.3,0.9-2.5,2.8h4.9v-0.4c0-0.8-0.2-1.4-0.6-1.8C262.6,20,262,19.7,261.2,19.7z"/>
    <path class="st0" d="M275.4,31.9h-4.9V9.7h4.9V31.9z"/>
    <path class="st0" d="M283.9,12.4v3.9h2.6v3.4h-2.6v7.2c0,0.6,0.1,1,0.3,1.2c0.2,0.2,0.6,0.3,1.3,0.3c0.5,0,0.9,0,1.2-0.1v3.5
    c-0.9,0.3-1.8,0.4-2.8,0.4c-1.7,0-2.9-0.4-3.7-1.2c-0.8-0.8-1.2-2-1.2-3.6v-7.8h-2v-3.4h2v-3.9H283.9z"/>
    <path class="st0" d="M297.4,31.9c-0.2-0.3-0.3-0.8-0.5-1.4c-0.9,1.1-2.2,1.7-3.8,1.7c-1.5,0-2.7-0.4-3.8-1.3s-1.5-2-1.5-3.4
    c0-1.7,0.6-3,1.9-3.9c1.3-0.9,3.1-1.3,5.5-1.3h1.5v-0.8c0-1.4-0.6-2.2-1.9-2.2c-1.2,0-1.7,0.6-1.7,1.7h-4.9c0-1.5,0.6-2.7,1.9-3.7
    c1.3-0.9,2.9-1.4,4.9-1.4c2,0,3.6,0.5,4.7,1.5c1.2,1,1.8,2.3,1.8,4v6.9c0,1.4,0.2,2.5,0.7,3.3v0.2H297.4z M294.3,28.7
    c0.6,0,1.1-0.1,1.5-0.4c0.4-0.3,0.7-0.6,0.9-0.9V25h-1.4c-1.7,0-2.5,0.8-2.5,2.3c0,0.4,0.1,0.8,0.4,1.1
    C293.5,28.6,293.8,28.7,294.3,28.7z"/>
    <path class="st0" d="M303.5,24c0-1.6,0.3-3,0.8-4.2c0.5-1.2,1.3-2.2,2.2-2.8c1-0.7,2.1-1,3.4-1c1.6,0,2.9,0.6,3.8,1.7l0.2-1.4h4.4
    v15.1c0,1.4-0.3,2.6-1,3.6s-1.6,1.8-2.8,2.3s-2.6,0.8-4.2,0.8c-1.1,0-2.3-0.2-3.3-0.7c-1.1-0.4-1.9-1-2.5-1.7l2-2.9
    c0.9,1.1,2.1,1.6,3.6,1.6c2.2,0,3.2-1.1,3.2-3.3v-0.5c-0.9,1-2.1,1.5-3.5,1.5c-1.9,0-3.5-0.7-4.6-2.2c-1.2-1.5-1.8-3.4-1.8-5.9V24z
    M308.4,24.3c0,1.3,0.2,2.3,0.7,3s1.2,1.1,2,1.1c1.1,0,1.8-0.4,2.3-1.1v-6.6c-0.5-0.7-1.2-1.1-2.3-1.1c-0.9,0-1.5,0.4-2,1.2
    C308.7,21.7,308.4,22.8,308.4,24.3z"/>
  </g>
  <path class="st1" d="M99,54.1l8.1-7.5c0,0,4.3-4.3,8.1-0.5c3.8,3.8,3.8,3.2,3.8,3.2L86.1,82.7L76.9,87l3.2-8.1l30.2-30.2l2.7,2.7"/>
  <path class="st2" d="M51.5,60.4C45,61,40.7,64.9,39.4,71.3h11.1l4.4,4.4v11.1l0,0C61.4,85.5,66,79.9,66,73.3v-1.9
  c0,0,18.1-8.4,15.5-26.7C56.7,46,51.8,67.4,51.8,67.4"/>
  <path class="st3" d="M7.6,75.4l-3.4,3.7c0,0-6.1,1.5-2.7,4.9s4.9-2.7,4.9-2.7l6.1-6.1l5.3,5.3c0,0,1.1-3.4-2.3-6.1
  c6.1-5.3,20-17.5,20-17.5l3.6-10.6l-10.2,3.4c0,0-14.8,17.1-17.8,20.1C8.4,66.6,5,67.7,5,67.7l5.3,5.3"/>
  <g>
    <path class="st4" d="M307.8,10.6l1.7-0.2V3.8h-1.7V2.7l3.6-0.7v8.4l1.7,0.2v1.2h-5.3V10.6z"/>
    <path class="st4" d="M320.2,4.6c0,0.5-0.1,0.9-0.4,1.3c-0.3,0.4-0.6,0.7-1.1,0.9c0.5,0.2,0.9,0.5,1.2,0.9s0.5,0.9,0.5,1.4
    c0,0.9-0.3,1.6-0.9,2.1c-0.6,0.5-1.4,0.7-2.4,0.7c-1,0-1.8-0.2-2.4-0.7s-0.9-1.2-0.9-2.1c0-0.5,0.1-1,0.4-1.4s0.7-0.7,1.2-0.9
    c-0.5-0.2-0.8-0.5-1.1-0.9c-0.3-0.4-0.4-0.8-0.4-1.3c0-0.9,0.3-1.5,0.9-2c0.6-0.5,1.3-0.7,2.3-0.7s1.7,0.2,2.3,0.7
    S320.2,3.7,320.2,4.6z M318.5,9c0-0.4-0.1-0.8-0.4-1.1c-0.3-0.3-0.6-0.4-1-0.4c-0.4,0-0.7,0.1-1,0.4c-0.3,0.3-0.4,0.6-0.4,1.1
    c0,0.5,0.1,0.8,0.4,1.1c0.3,0.3,0.6,0.4,1,0.4c0.4,0,0.7-0.1,1-0.4C318.4,9.8,318.5,9.5,318.5,9z M318.3,4.7c0-0.4-0.1-0.7-0.3-1
    c-0.2-0.2-0.5-0.4-0.8-0.4c-0.4,0-0.6,0.1-0.8,0.4s-0.3,0.6-0.3,1c0,0.4,0.1,0.7,0.3,1c0.2,0.2,0.5,0.4,0.9,0.4
    c0.4,0,0.6-0.1,0.8-0.4C318.2,5.4,318.3,5.1,318.3,4.7z"/>
  </g>
</svg>
