<svg xmlns="http://www.w3.org/2000/svg" width="24" height="24" viewBox="0 0 24 24"><path d="M8.5 12.5h2v-1h-2v-2h11.4l-.3.9h1l.4-1.1v-.3c0-.1 0-.3-.1-.4-.1-.1-.2-.2-.4-.2h-1.9c-.2-2.8-1.5-4.9-1.5-5l-.1-.2h-.2c-3.6-.9-6.7-.9-10.2 0-.7.3-1.8 2.8-2 5.3h-2.4v.7l2.2 8.3c.4 1.2 1.4 2 2.8 2h2.3v-1h-1v-2h1v-1h-1v-3zm-1.6-8.4c3.3-.8 6.1-.8 9.4 0 .3.5 1.2 2.2 1.3 4.4h-12.1c.2-2.2 1.1-3.9 1.4-4.4zm.6 5.4v2h-3.7l-.5-2h4.2zm-3.4 3h3.4v3h-2.6l-.8-3zm3.4 6h-.3c-.9 0-1.6-.5-1.8-1.2l-.2-.8h2.3v2zm8.5-8c-3 0-5.5 2.5-5.5 5.5s2.5 5.5 5.5 5.5 5.5-2.5 5.5-5.5-2.5-5.5-5.5-5.5zm0 10c-2.5 0-4.5-2-4.5-4.5s2-4.5 4.5-4.5 4.5 2 4.5 4.5-2 4.5-4.5 4.5zm1.6-6.6l-1.5 1.5-1.5-1.5-.6.8 1.4 1.3-1.4 1.4.6.8 1.5-1.5 1.5 1.5.6-.8-1.4-1.4 1.4-1.3-.6-.8z"/></svg>