<svg xmlns="http://www.w3.org/2000/svg" width="24" height="24" viewBox="0 0 24 24"><path d="M20.5 8.5h-1.9c-.1-2.9-1.5-5-1.6-5.1s-.2-.2-.3-.2c-3.6-.9-6.7-.9-10.2 0-.7.3-1.8 2.8-2 5.3h-1.8c-.3 0-.5.2-.5.5v.3l2.2 8.2c.4 1.2 1.4 2 2.8 2h8.8c1.3 0 2.4-.8 2.8-2l2.2-8.2v-.3c0-.3-.2-.5-.5-.5zm-13.6-4.4c3.3-.8 6.1-.8 9.4 0 .3.5 1.2 2.2 1.3 4.4h-12.1c.2-2.2 1.1-3.9 1.4-4.4zm7.6 7.4h-6v-2h6v2zm0 1v3h-6v-3h6zm-11-3h4v2h-3.7l-.5-2h.2zm.6 3h3.4v3h-2.6l-.8-3zm3.1 6c-.9 0-1.6-.5-1.8-1.2l-.2-.8h2.3v2h-.3zm4.3 0h-3v-2h6v2h-3zm4.5 0h-.5v-2h2.5l-.2.8c-.2.7-.9 1.2-1.8 1.2zm2.3-3h-2.8v-3h3.6l-.8 3zm1.1-4h-3.9v-2h4.4l-.5 2z"/></svg>