<svg xmlns="http://www.w3.org/2000/svg" width="24" height="24" viewBox="0 0 24 24"><path d="M12.5 19.5v-8h-1v8l-3.3-3.2-.6.8 4.4 4.3 4.4-4.3-.6-.8-3.3 3.2zm1.5-11h1c0-1.6-.7-3.5-4-3.5v1c2.1 0 3 .8 3 2.5zm7.9 1.1c-.3-1.3-1.5-2.8-3.9-2.7-.4-3-3.2-5.4-6.5-5.4-2.9 0-5.2 1.5-5.9 3.9-2.4.4-3.7 2.1-3.6 4.7.1 2 1.8 3.4 4.1 3.4h1.4v-1h-1.4c-1.4 0-3-.6-3.1-2.4 0-1 .1-3.5 3-3.7.2 0 .4-.2.4-.4.6-2.6 3-3.5 5-3.5 2.8 0 5.2 2 5.5 4.5v.4c0 .1.1.3.2.4s.2.1.4.1c2.6-.3 3.2 1.4 3.4 1.9.2 1 0 2.2-1 2.7h-3.4v1h3.7c1.4-.6 2.1-2.2 1.7-3.9z"/></svg>