<svg xmlns="http://www.w3.org/2000/svg" width="24" height="24" viewBox="0 0 24 24"><path d="M16.4 1.8l-.8.7 4.5 4.5h-4.8c-2.7 0-5.1 1-6.8 2.9-1.5 1.6-2.4 3.6-2.5 6.1h1c.1-2.2.9-4.1 2.3-5.5 1.5-1.6 3.6-2.5 6-2.5h4.2l-3.7 3.8.7.7 5.3-5.3-5.4-5.4zM15.1 21h-10.6c-1 0-1.5-1.1-1.5-2.2v-14.1c0-1.2.5-1.7 1.7-1.7h8.3v-1h-8.3c-1.7 0-2.7.9-2.7 2.7v14c0 1.7.8 3.3 2.5 3.3h10.6c1.5 0 2.9-1.4 2.9-3h-1c0 1.1-1 2-1.9 2zM10.9 16.5c.8 0 1.3-.7 1.3-1.3s-.4-1.2-1.2-1.2h-1.5v4h.8v-1.5h.6zm-.5-1.8h.6c.3 0 .5.2.5.5s-.3.5-.6.5h-.5v-1zM16.3 16c0-1-.7-2-2-2v.1h-1.4v4h1.3c1.4 0 2.1-1.1 2.1-2.1zm-2.1 1.3h-.6v-2.6h.6c.8 0 1.2.6 1.2 1.3s-.4 1.3-1.2 1.3zM17 18h.8v-1.6h1.3v-.7h-1.3v-1h1.6v-.7h-2.4z"/></svg>