<svg xmlns="http://www.w3.org/2000/svg" viewBox="0 0 819 819">
  <path transform="translate(0,0) scale(1,-1)"
        d="m338,-406q0,7 4.5,25.5t10.5,24.5q13,8 33,12t41,4q7,0 17.5,-1.5t18.5,-3.5l-26,-217q0,-2 1,-5.5t2,-4.5l40,4q0,-10 -5,-26.5t-10,-25.5q-15,-6 -42.5,-11t-46.5,-5q-8,8 -17,25.5t-9,27.5l29,180l-41,-3l0,0zm142,174q0,-26 -14,-40t-35,-14q-24,0 -36.5,13.5t-12.5,40.5q0,21 14,35.5t35,14.5q22,0 35.5,-13t13.5,-37zm-71,164q71,0 133,-27t108.5,-73t73,-108.5t26.5,-132.5q0,-71 -26.5,-133t-73,-108.5t-108.5,-73.5t-133,-27t-133,27t-108.5,73.5t-73,108.5t-26.5,133q0,41 9.5,80t27.5,75l-61,31q-22,-43 -33,-90t-11,-96q0,-85 32,-159.5t87.5,-130.5t130,-88t159.5,-32t159.5,32t130,88t88,130.5t32.5,159.5t-32.5,159.5t-88,130t-130,87.5t-159.5,32q-49,0 -96,-11t-90,-33l31,-61q36,18 75,27.5t80,9.5l0,0z"/>
</svg>
