<?xml version="1.0" encoding="utf-8"?>
<!-- Generator: Adobe Illustrator 22.0.0, SVG Export Plug-In . SVG Version: 6.00 Build 0)  -->
<svg version="1.1" id="Layer_1" xmlns="http://www.w3.org/2000/svg" xmlns:xlink="http://www.w3.org/1999/xlink" x="0px" y="0px"
	 viewBox="0 0 24 24" style="enable-background:new 0 0 24 24;" xml:space="preserve">
<path d="M12.5,19.4c-0.4,0.2-0.4,0.2-0.8,0L11.3,19l-0.7,0.7l0.5,0.5l0.2,0.1c0.4,0.2,0.7,0.3,0.9,0.3s0.5-0.1,0.9-0.3l0.7-0.6
	L13.1,19C13.1,19,12.5,19.4,12.5,19.4z M13.8,19.7l5.4-6.1c1.1-1.1,1.6-2.5,1.6-4.1C20.9,6.4,18.6,4,15.6,4c-1.4,0-2.7,0.5-3.7,1.6
	c-1-1-2.3-1.6-3.7-1.6c-3,0-5.3,2.4-5.3,5.5c0,1.6,0.6,3,1.6,4l6.1,6.2"/>
</svg>
